<?xml version="1.0" encoding="UTF-8" standalone="no"?>
<svg xmlns="http://www.w3.org/2000/svg" xmlns:xlink="http://www.w3.org/1999/xlink" contentStyleType="text/css" height="535px" preserveAspectRatio="none" style="width:1401px;height:535px;background:#FFFFFF;" version="1.1" viewBox="0 0 1401 535" width="1401px" zoomAndPan="magnify"><defs/><g><!--class 792368819--><g id="elem_792368819"><rect codeLine="10" fill="#EEEEEE" height="48.2656" id="792368819" rx="2.5" ry="2.5" style="stroke:#008000;stroke-width:0.5;" width="394" x="712" y="207"/><text fill="#000000" font-family="sans-serif" font-size="13" lengthAdjust="spacing" textLength="4" x="907" y="224.0669"> </text><line style="stroke:#008000;stroke-width:0.5;" x1="713" x2="1105" y1="232.1328" y2="232.1328"/><polygon fill="none" points="723,240.1992,727,244.1992,723,248.1992,719,244.1992" style="stroke:#B38D22;stroke-width:1.0;"/><text fill="#4169E1" font-family="sans-serif" font-size="13" lengthAdjust="spacing" textLength="63" x="732" y="248.1997">inScheme</text><text fill="#000000" font-family="sans-serif" font-size="13" lengthAdjust="spacing" textLength="272" x="803" y="248.1997">Date Specification Types, ConceptScheme</text><text fill="#008000" font-family="sans-serif" font-size="13" lengthAdjust="spacing" textLength="17" x="1083" y="248.1997">[*]</text></g><!--class 1809567160--><g id="elem_1809567160"><rect codeLine="13" fill="#EEEEEE" height="48.2656" id="1809567160" rx="2.5" ry="2.5" style="stroke:#008000;stroke-width:0.5;" width="326" x="251" y="7"/><text fill="#000000" font-family="sans-serif" font-size="13" lengthAdjust="spacing" textLength="4" x="412" y="24.0669"> </text><line style="stroke:#008000;stroke-width:0.5;" x1="252" x2="576" y1="32.1328" y2="32.1328"/><polygon fill="none" points="262,40.1992,266,44.1992,262,48.1992,258,44.1992" style="stroke:#B38D22;stroke-width:1.0;"/><text fill="#4169E1" font-family="sans-serif" font-size="13" lengthAdjust="spacing" textLength="63" x="271" y="48.1997">inScheme</text><text fill="#000000" font-family="sans-serif" font-size="13" lengthAdjust="spacing" textLength="204" x="342" y="48.1997">Activity Types, ConceptScheme</text><text fill="#008000" font-family="sans-serif" font-size="13" lengthAdjust="spacing" textLength="17" x="554" y="48.1997">[*]</text></g><!--class -319872343--><g id="elem_-319872343"><rect codeLine="16" fill="#EEEEEE" height="48.2656" id="-319872343" rx="2.5" ry="2.5" style="stroke:#008000;stroke-width:0.5;" width="332" x="743" y="402"/><text fill="#000000" font-family="sans-serif" font-size="13" lengthAdjust="spacing" textLength="4" x="907" y="419.0669"> </text><line style="stroke:#008000;stroke-width:0.5;" x1="744" x2="1074" y1="427.1328" y2="427.1328"/><polygon fill="none" points="754,435.1992,758,439.1992,754,443.1992,750,439.1992" style="stroke:#B38D22;stroke-width:1.0;"/><text fill="#4169E1" font-family="sans-serif" font-size="13" lengthAdjust="spacing" textLength="63" x="763" y="443.1997">inScheme</text><text fill="#000000" font-family="sans-serif" font-size="13" lengthAdjust="spacing" textLength="210" x="834" y="443.1997">Function Types, ConceptScheme</text><text fill="#008000" font-family="sans-serif" font-size="13" lengthAdjust="spacing" textLength="17" x="1052" y="443.1997">[*]</text></g><!--class -334950341--><g id="elem_-334950341"><rect codeLine="19" fill="#F1F1F1" height="39.1016" id="-334950341" rx="2.5" ry="2.5" style="stroke:#000000;stroke-width:0.5;" width="129" x="349.5" y="95.5"/><text fill="#0000FF" font-family="sans-serif" font-size="12" font-style="italic" lengthAdjust="spacing" textLength="127" x="350.5" y="111.6387">«Spacetime Volume»</text><text fill="#000000" font-family="sans-serif" font-size="13" lengthAdjust="spacing" textLength="34" x="397" y="126.5356">Place</text></g><!--class -640972234--><g id="elem_-640972234"><rect codeLine="21" fill="#F1F1F1" height="39.1016" id="-640972234" rx="2.5" ry="2.5" style="stroke:#000000;stroke-width:0.5;" width="107" x="855.5" y="490.5"/><text fill="#0000FF" font-family="sans-serif" font-size="12" font-style="italic" lengthAdjust="spacing" textLength="105" x="856.5" y="506.6387">«Persistent Item»</text><text fill="#000000" font-family="sans-serif" font-size="13" lengthAdjust="spacing" textLength="34" x="892" y="521.5356">Actor</text></g><!--class 2121019810--><g id="elem_2121019810"><rect codeLine="23" fill="#F1F1F1" height="153.0313" id="2121019810" rx="2.5" ry="2.5" style="stroke:#000000;stroke-width:0.5;" width="350" x="239" y="219.5"/><text fill="#0000FF" font-family="sans-serif" font-size="12" font-style="italic" lengthAdjust="spacing" textLength="80" x="374" y="235.6387">«CRM Entity»</text><text fill="#000000" font-family="sans-serif" font-size="13" lengthAdjust="spacing" textLength="69" x="379.5" y="250.5356">Time-Span</text><line style="stroke:#000000;stroke-width:0.5;" x1="240" x2="588" y1="258.6016" y2="258.6016"/><ellipse cx="250" cy="271.668" fill="none" rx="3" ry="3" style="stroke:#038048;stroke-width:1.0;"/><text fill="#4169E1" font-family="sans-serif" font-size="13" lengthAdjust="spacing" textLength="116" x="259" y="274.6685">begin of the begin</text><text fill="#000000" font-family="sans-serif" font-size="13" lengthAdjust="spacing" textLength="158" x="383" y="274.6685">date, gYear, gYearMonth</text><text fill="#008000" font-family="sans-serif" font-size="13" lengthAdjust="spacing" textLength="34" x="549" y="274.6685">[0..1]</text><ellipse cx="250" cy="286.8008" fill="none" rx="3" ry="3" style="stroke:#038048;stroke-width:1.0;"/><text fill="#4169E1" font-family="sans-serif" font-size="13" lengthAdjust="spacing" textLength="105" x="259" y="289.8013">end of the begin</text><text fill="#000000" font-family="sans-serif" font-size="13" lengthAdjust="spacing" textLength="158" x="372" y="289.8013">date, gYear, gYearMonth</text><text fill="#008000" font-family="sans-serif" font-size="13" lengthAdjust="spacing" textLength="34" x="538" y="289.8013">[0..1]</text><ellipse cx="250" cy="301.9336" fill="none" rx="3" ry="3" style="stroke:#038048;stroke-width:1.0;"/><text fill="#4169E1" font-family="sans-serif" font-size="13" lengthAdjust="spacing" textLength="105" x="259" y="304.9341">begin of the end</text><text fill="#000000" font-family="sans-serif" font-size="13" lengthAdjust="spacing" textLength="158" x="372" y="304.9341">date, gYear, gYearMonth</text><text fill="#008000" font-family="sans-serif" font-size="13" lengthAdjust="spacing" textLength="34" x="538" y="304.9341">[0..1]</text><ellipse cx="250" cy="317.0664" fill="none" rx="3" ry="3" style="stroke:#038048;stroke-width:1.0;"/><text fill="#4169E1" font-family="sans-serif" font-size="13" lengthAdjust="spacing" textLength="94" x="259" y="320.0669">end of the end</text><text fill="#000000" font-family="sans-serif" font-size="13" lengthAdjust="spacing" textLength="158" x="361" y="320.0669">date, gYear, gYearMonth</text><text fill="#008000" font-family="sans-serif" font-size="13" lengthAdjust="spacing" textLength="34" x="527" y="320.0669">[0..1]</text><ellipse cx="250" cy="332.1992" fill="none" rx="3" ry="3" style="stroke:#038048;stroke-width:1.0;"/><text fill="#4169E1" font-family="sans-serif" font-size="13" lengthAdjust="spacing" textLength="154" x="259" y="335.1997">beginning is qualified by</text><text fill="#000000" font-family="sans-serif" font-size="13" lengthAdjust="spacing" textLength="39" x="421" y="335.1997">Literal</text><text fill="#008000" font-family="sans-serif" font-size="13" lengthAdjust="spacing" textLength="34" x="468" y="335.1997">[0..1]</text><ellipse cx="250" cy="347.332" fill="none" rx="3" ry="3" style="stroke:#038048;stroke-width:1.0;"/><text fill="#4169E1" font-family="sans-serif" font-size="13" lengthAdjust="spacing" textLength="116" x="259" y="350.3325">end is qualified by</text><text fill="#000000" font-family="sans-serif" font-size="13" lengthAdjust="spacing" textLength="39" x="383" y="350.3325">Literal</text><text fill="#008000" font-family="sans-serif" font-size="13" lengthAdjust="spacing" textLength="34" x="430" y="350.3325">[0..1]</text><ellipse cx="250" cy="362.4648" fill="none" rx="3" ry="3" style="stroke:#038048;stroke-width:1.0;"/><text fill="#4169E1" font-family="sans-serif" font-size="13" lengthAdjust="spacing" textLength="56" x="259" y="365.4653">has note</text><text fill="#000000" font-family="sans-serif" font-size="13" lengthAdjust="spacing" textLength="39" x="323" y="365.4653">Literal</text><text fill="#008000" font-family="sans-serif" font-size="13" lengthAdjust="spacing" textLength="34" x="370" y="365.4653">[0..1]</text></g><!--class 1593518897--><g id="elem_1593518897"><rect codeLine="32" fill="#F1F1F1" height="39.1016" id="1593518897" rx="2.5" ry="2.5" style="stroke:#000000;stroke-width:0.5;" width="54" x="51" y="156.5"/><text fill="#0000FF" font-family="sans-serif" font-size="12" font-style="italic" lengthAdjust="spacing" textLength="49" x="53.5" y="172.6387">«Event»</text><text fill="#000000" font-family="sans-serif" font-size="13" lengthAdjust="spacing" textLength="48" x="54" y="187.5356">Activity</text></g><!--class 1424839643--><g id="elem_1424839643"><rect codeLine="34" fill="#F1F1F1" height="39.1016" id="1424839643" rx="2.5" ry="2.5" style="stroke:#000000;stroke-width:0.5;" width="171" x="328.5" y="412.5"/><text fill="#0000FF" font-family="sans-serif" font-size="12" font-style="italic" lengthAdjust="spacing" textLength="169" x="329.5" y="428.6387">«PC0_Typed_CRM_Property»</text><text fill="#000000" font-family="sans-serif" font-size="13" lengthAdjust="spacing" textLength="135" x="346.5" y="443.5356">PC14_carried_out_by</text></g><!--class 1963030227--><g id="elem_1963030227"><rect codeLine="36" fill="#F1F1F1" height="62.2344" id="1963030227" rx="2.5" ry="2.5" style="stroke:#000000;stroke-width:0.5;" width="338" x="740" y="295"/><text fill="#0000FF" font-family="sans-serif" font-size="12" font-style="italic" lengthAdjust="spacing" textLength="125" x="846.5" y="311.1387">«Temporal duration»</text><text fill="#000000" font-family="sans-serif" font-size="13" lengthAdjust="spacing" textLength="89" x="864.5" y="326.0356">Time duration</text><line style="stroke:#000000;stroke-width:0.5;" x1="741" x2="1077" y1="334.1016" y2="334.1016"/><ellipse cx="751" cy="347.168" fill="#84BE84" rx="3" ry="3" style="stroke:#038048;stroke-width:1.0;"/><text fill="#4169E1" font-family="sans-serif" font-size="13" lengthAdjust="spacing" textLength="228" x="760" y="350.1685">Numeric value of temporal duration</text><text fill="#000000" font-family="sans-serif" font-size="13" lengthAdjust="spacing" textLength="50" x="996" y="350.1685">decimal</text><text fill="#008000" font-family="sans-serif" font-size="13" lengthAdjust="spacing" textLength="18" x="1054" y="350.1685">[1]</text></g><!--class 1798358405--><g id="elem_1798358405"><rect codeLine="39" fill="#F1F1F1" height="39.1016" id="1798358405" rx="2.5" ry="2.5" style="stroke:#000000;stroke-width:0.5;" width="127" x="1267" y="306.5"/><text fill="#0000FF" font-family="sans-serif" font-size="12" font-style="italic" lengthAdjust="spacing" textLength="125" x="1268" y="322.6387">«Temporal duration»</text><text fill="#000000" font-family="sans-serif" font-size="13" lengthAdjust="spacing" textLength="89" x="1286" y="337.5356">Temporal unit</text></g><!--link 2121019810 to 1963030227--><g id="link_2121019810_1963030227"><path codeLine="41" d="M589.16,306.598 C636.35,309.47 687.421,312.577 734.571,315.447 " fill="none" id="2121019810-to-1963030227" style="stroke:#000000;stroke-width:1.0;"/><polygon fill="#000000" points="739.709,315.759,730.9692,311.2186,734.7183,315.4547,730.4822,319.2038,739.709,315.759" style="stroke:#000000;stroke-width:1.0;"/><text fill="#000000" font-family="sans-serif" font-size="13" lengthAdjust="spacing" textLength="81" x="610" y="305.0669">had duration</text><text fill="#000000" font-family="sans-serif" font-size="13" lengthAdjust="spacing" textLength="24" x="708.0608" y="327.7081">0..1</text></g><!--link 2121019810 to 792368819--><g id="link_2121019810_792368819"><path codeLine="42" d="M589.16,273.038 C631.719,267.427 677.434,261.399 720.582,255.71 " fill="none" id="2121019810-to-792368819" style="stroke:#008000;stroke-width:2.0;"/><polygon fill="#008000" points="725.559,255.054,716.1138,252.2634,720.6018,255.7069,717.1583,260.1949,725.559,255.054" style="stroke:#008000;stroke-width:2.0;"/><text fill="#008000" font-family="sans-serif" font-size="13" lengthAdjust="spacing" textLength="56" x="622.5" y="256.0669">has type</text><text fill="#008000" font-family="sans-serif" font-size="13" lengthAdjust="spacing" textLength="24" x="680.1826" y="270.5649">0..1</text></g><!--link 2121019810 to 2121019810--><g id="link_2121019810_2121019810"><path codeLine="43" d="M369.882,219.252 C371.407,196.851 386.113,179.5 414,179.5 C439.708,179.5 454.214,194.246 457.519,214.1 " fill="none" id="2121019810-to-2121019810" style="stroke:#000000;stroke-width:1.0;"/><polygon fill="#000000" points="458.118,219.252,461.0525,209.8505,457.5409,214.2854,453.106,210.7738,458.118,219.252" style="stroke:#000000;stroke-width:1.0;"/><text fill="#000000" font-family="sans-serif" font-size="13" lengthAdjust="spacing" textLength="117" x="355.5" y="170.5669">was Derived From</text><text fill="#000000" font-family="sans-serif" font-size="13" lengthAdjust="spacing" textLength="24" x="437.0789" y="208.557">0..1</text></g><!--link 1593518897 to 2121019810--><g id="link_1593518897_2121019810"><path codeLine="44" d="M105.1734,187.099 C111.628,189.756 118.542,192.536 125,195 C160.059,208.377 197.762,222.082 233.962,234.91 " fill="none" id="1593518897-to-2121019810" style="stroke:#000000;stroke-width:1.0;"/><polygon fill="#000000" points="238.828,236.633,231.6784,229.8593,234.1145,234.9647,229.0091,237.4009,238.828,236.633" style="stroke:#000000;stroke-width:1.0;"/><text fill="#000000" font-family="sans-serif" font-size="13" lengthAdjust="spacing" textLength="92" x="126" y="191.0669">has time-span</text><text fill="#000000" font-family="sans-serif" font-size="13" lengthAdjust="spacing" textLength="24" x="206.9317" y="246.5139">0..1</text></g><!--link 1593518897 to 1593518897--><g id="link_1593518897_1593518897"><path codeLine="45" d="M63.9938,156.498 C56.257,137.44 60.9258,116.5 78,116.5 C93.6069,116.5 98.8489,133.995 93.726,151.558 " fill="none" id="1593518897-to-1593518897" style="stroke:#000000;stroke-width:1.0;"/><polygon fill="#000000" points="92.0062,156.498,98.7414,149.3121,93.6491,151.7756,91.1856,146.6834,92.0062,156.498" style="stroke:#000000;stroke-width:1.0;"/><text fill="#000000" font-family="sans-serif" font-size="13" lengthAdjust="spacing" textLength="132" x="12" y="107.5669">had specific purpose</text><text fill="#000000" font-family="sans-serif" font-size="13" lengthAdjust="spacing" textLength="24" x="68.6206" y="145.3003">0..1</text></g><!--link 1593518897 to -334950341--><g id="link_1593518897_-334950341"><path codeLine="46" d="M105.2084,171.213 C156.119,161.915 269.875,141.14 343.92,127.616 " fill="none" id="1593518897-to--334950341" style="stroke:#000000;stroke-width:1.0;"/><polygon fill="#000000" points="349.182,126.655,339.6103,124.3349,344.2632,127.5522,341.0458,132.205,349.182,126.655" style="stroke:#000000;stroke-width:1.0;"/><text fill="#000000" font-family="sans-serif" font-size="13" lengthAdjust="spacing" textLength="83" x="130.5" y="147.0669">took place at</text><text fill="#000000" font-family="sans-serif" font-size="13" lengthAdjust="spacing" textLength="24" x="317.2601" y="140.6989">0..1</text></g><!--link 1593518897 to 1424839643--><g id="link_1593518897_1424839643"><path codeLine="47" d="M87.1777,195.559 C106.475,239.07 159.299,343.894 239,393 C264.165,408.505 294.761,417.869 323.238,423.516 " fill="none" id="1593518897-to-1424839643" style="stroke:#000000;stroke-width:1.0;"/><polygon fill="#000000" points="328.157,424.46,320.0709,418.8372,323.2464,423.5187,318.5649,426.6942,328.157,424.46" style="stroke:#000000;stroke-width:1.0;"/><text fill="#000000" font-family="sans-serif" font-size="13" lengthAdjust="spacing" textLength="89" x="127.5" y="269.0669">carried out by</text><text fill="#000000" font-family="sans-serif" font-size="13" lengthAdjust="spacing" textLength="23" x="297.4" y="436.525">1..*</text></g><!--link 1593518897 to 1809567160--><g id="link_1593518897_1809567160"><path codeLine="48" d="M93.0196,156.277 C101.3593,145.637 112.695,132.901 125,124 C169.437,91.855 225.518,70.462 276.359,56.397 " fill="none" id="1593518897-to-1809567160" style="stroke:#008000;stroke-width:2.0;"/><polygon fill="#008000" points="281.263,55.059,271.5272,53.5707,276.4395,56.3759,273.6343,61.2882,281.263,55.059" style="stroke:#008000;stroke-width:2.0;"/><text fill="#008000" font-family="sans-serif" font-size="13" lengthAdjust="spacing" textLength="56" x="144" y="74.0669">has type</text><text fill="#008000" font-family="sans-serif" font-size="13" lengthAdjust="spacing" textLength="24" x="220.1741" y="75.1959">0..1</text></g><!--link 1424839643 to -640972234--><g id="link_1424839643_-640972234"><path codeLine="49" d="M499.75,445.4087 C599.893,461.2528 763.805,487.1862 850.329,500.8756 " fill="none" id="1424839643-to--640972234" style="stroke:#000000;stroke-width:1.0;"/><polygon fill="#000000" points="855.406,501.6789,847.1417,496.3215,850.4674,500.8975,845.8915,504.2232,855.406,501.6789" style="stroke:#000000;stroke-width:1.0;"/><text fill="#000000" font-family="sans-serif" font-size="13" lengthAdjust="spacing" textLength="64" x="618.5" y="460.0669">has range</text><text fill="#000000" font-family="sans-serif" font-size="13" lengthAdjust="spacing" textLength="8" x="839.6668" y="513.6376">1</text></g><!--link 1424839643 to -319872343--><g id="link_1424839643_-319872343"><path codeLine="50" d="M499.75,430.9686 C565.009,430.1743 657.35,429.051 737.707,428.073 " fill="none" id="1424839643-to--319872343" style="stroke:#008000;stroke-width:2.0;"/><polygon fill="#008000" points="742.982,428.008,733.9335,424.1189,737.9824,428.0694,734.0318,432.1183,742.982,428.008" style="stroke:#008000;stroke-width:2.0;"/><text fill="#008000" font-family="sans-serif" font-size="13" lengthAdjust="spacing" textLength="81" x="610" y="424.0669">in the role of</text><text fill="#008000" font-family="sans-serif" font-size="13" lengthAdjust="spacing" textLength="8" x="726.7468" y="440.5322">1</text></g><!--link 1963030227 to 1798358405--><g id="link_1963030227_1798358405"><path codeLine="51" d="M1078.21,326 C1142.45,326 1212.1,326 1261.75,326 " fill="none" id="1963030227-to-1798358405" style="stroke:#000000;stroke-width:1.0;"/><polygon fill="#000000" points="1266.79,326,1257.79,322,1261.79,326,1257.79,330,1266.79,326" style="stroke:#000000;stroke-width:1.0;"/><text fill="#000000" font-family="sans-serif" font-size="13" lengthAdjust="spacing" textLength="119" x="1127" y="322.0669">temporal unit type</text><text fill="#000000" font-family="sans-serif" font-size="13" lengthAdjust="spacing" textLength="8" x="1250.961" y="338.9359">1</text></g><!--SRC=[lLPjRzem4FxEhpZHRztA4X8WQIkaZL9fqZfLeveqJHCooK4i4Zjp73fMzR_ldD0ab3ArGgtuG6BxddlkyRqanha6BK7nHQGXv0e3pQLeHJn42BWAOYoVCKdr6X9CPgYoLhRa8cMA9J1ZmNAXP2x2aOobWjk8QspiZsAMPHED2gLUftWfXIuFpkAyUKx843DCmRKQYug9vSvYWMXm9lmlWkqqjYOH2-Kj5mkOipZ3Lc2EGfj-B8E1ttNwdcVx04VZyVWivW9F5mfHm5thRiun3k-Fu3mmx4wLNBFu4r4SSZ498apm_4EnCmIuO1fXacB0vpnWHYwueT2ozp2I8i1KbmRmW5Nu6Fuy_lK0qRhVPcPxbj_h3-o-TIYrZtHxAquNTHYX4yVslK7NSPr32Ltc8ZX8eUkO1RWXvRX-pt9S6yxF9oajQquOtsMS9pWSmb51SaRdbqIo0Y19f2e1-gxb3xeK5W5SKnhpJAFGy5bZij_-XfoSa3jHO7JjhcsHEBP56ADlLp0MclJUCTzez6vNenakk00v1nqX52-rMY5brdjO_42cDdzNbEVHOvsiJiUkfThl2aNuDewsOYAlRn7HQxefuX6cZ_0CVkSifah746RhskCNQdEAnOS4ybhO4UMfa1fV2DYicAA9bBsfvpizs_Fy0INyU4NrihzKhaUsEmsOKXJGLEPwEjjWk5tNS_m-jHCgl94rDSqWd5BvJA-LJ54zKK1RzGTXhef6MyBvVSToh6xNKBgXmIHDR0z7TainGHt99vNwIfr3yG1MZDwAn7gCraWnwlV9hePF2LXnoWNN9UM1xpazpxLwpw9ytshNZQOD9oT3Q9lBelPS1z-6e_ByAT3Ogy3scrO3iBrnLuHmfl6FtZoQrSvCnc61cO6PsFlnckiLbLioko1HLvJJbqechNQTGSymBxoQZfjHnzrlsrpVKY7RZ6L8SvLA-WJO2r6FamQ4bd89gHavmFGJjdQdSspSLmdTiDqaFb3YKpN_XtirxLzu3qsl9HiJHZNK7gb8tqwBlKRLV7yM1UhjfkCg6PiYQMtbO8LPftXJpsOb567y0m00]--></g></svg>