<?xml version="1.0" encoding="UTF-8" standalone="no"?>
<svg xmlns="http://www.w3.org/2000/svg" xmlns:xlink="http://www.w3.org/1999/xlink" contentStyleType="text/css" height="580px" preserveAspectRatio="none" style="width:1848px;height:580px;background:#FFFFFF;" version="1.1" viewBox="0 0 1848 580" width="1848px" zoomAndPan="magnify"><defs/><g><!--class -1278121195--><g id="elem_-1278121195"><rect codeLine="10" fill="#EEEEEE" height="48.2656" id="-1278121195" rx="2.5" ry="2.5" style="stroke:#008000;stroke-width:0.5;" width="345" x="1183.5" y="262.5"/><text fill="#000000" font-family="sans-serif" font-size="13" lengthAdjust="spacing" textLength="4" x="1354" y="279.5669"> </text><line style="stroke:#008000;stroke-width:0.5;" x1="1184.5" x2="1527.5" y1="287.6328" y2="287.6328"/><polygon fill="none" points="1194.5,295.6992,1198.5,299.6992,1194.5,303.6992,1190.5,299.6992" style="stroke:#B38D22;stroke-width:1.0;"/><text fill="#4169E1" font-family="sans-serif" font-size="13" lengthAdjust="spacing" textLength="63" x="1203.5" y="303.6997">inScheme</text><text fill="#000000" font-family="sans-serif" font-size="13" lengthAdjust="spacing" textLength="223" x="1274.5" y="303.6997">Document Types, ConceptScheme</text><text fill="#008000" font-family="sans-serif" font-size="13" lengthAdjust="spacing" textLength="17" x="1505.5" y="303.6997">[*]</text></g><!--class 443291334--><g id="elem_443291334"><rect codeLine="13" fill="#EEEEEE" height="25.1328" id="443291334" rx="2.5" ry="2.5" style="stroke:#008000;stroke-width:0.5;" width="10" x="856" y="14"/><text fill="#000000" font-family="sans-serif" font-size="13" lengthAdjust="spacing" textLength="4" x="859" y="31.0669"> </text></g><!--class -988551484--><g id="elem_-988551484"><rect codeLine="15" fill="#EEEEEE" height="48.2656" id="-988551484" rx="2.5" ry="2.5" style="stroke:#008000;stroke-width:0.5;" width="311" x="705.5" y="79.5"/><text fill="#000000" font-family="sans-serif" font-size="13" lengthAdjust="spacing" textLength="4" x="859" y="96.5669"> </text><line style="stroke:#008000;stroke-width:0.5;" x1="706.5" x2="1015.5" y1="104.6328" y2="104.6328"/><polygon fill="none" points="716.5,112.6992,720.5,116.6992,716.5,120.6992,712.5,116.6992" style="stroke:#B38D22;stroke-width:1.0;"/><text fill="#4169E1" font-family="sans-serif" font-size="13" lengthAdjust="spacing" textLength="63" x="725.5" y="120.6997">inScheme</text><text fill="#000000" font-family="sans-serif" font-size="13" lengthAdjust="spacing" textLength="189" x="796.5" y="120.6997">Right Types, ConceptScheme</text><text fill="#008000" font-family="sans-serif" font-size="13" lengthAdjust="spacing" textLength="17" x="993.5" y="120.6997">[*]</text></g><!--class -525828125--><g id="elem_-525828125"><rect codeLine="18" fill="#EEEEEE" height="48.2656" id="-525828125" rx="2.5" ry="2.5" style="stroke:#008000;stroke-width:0.5;" width="338" x="692" y="167.5"/><text fill="#000000" font-family="sans-serif" font-size="13" lengthAdjust="spacing" textLength="4" x="859" y="184.5669"> </text><line style="stroke:#008000;stroke-width:0.5;" x1="693" x2="1029" y1="192.6328" y2="192.6328"/><polygon fill="none" points="703,200.6992,707,204.6992,703,208.6992,699,204.6992" style="stroke:#B38D22;stroke-width:1.0;"/><text fill="#4169E1" font-family="sans-serif" font-size="13" lengthAdjust="spacing" textLength="63" x="712" y="208.6997">inScheme</text><text fill="#000000" font-family="sans-serif" font-size="13" lengthAdjust="spacing" textLength="216" x="783" y="208.6997">Affiliation Types, ConceptScheme</text><text fill="#008000" font-family="sans-serif" font-size="13" lengthAdjust="spacing" textLength="17" x="1007" y="208.6997">[*]</text></g><!--class -815559484--><g id="elem_-815559484"><rect codeLine="21" fill="#EEEEEE" height="48.2656" id="-815559484" rx="2.5" ry="2.5" style="stroke:#008000;stroke-width:0.5;" width="394" x="1159" y="423.5"/><text fill="#000000" font-family="sans-serif" font-size="13" lengthAdjust="spacing" textLength="4" x="1354" y="440.5669"> </text><line style="stroke:#008000;stroke-width:0.5;" x1="1160" x2="1552" y1="448.6328" y2="448.6328"/><polygon fill="none" points="1170,456.6992,1174,460.6992,1170,464.6992,1166,460.6992" style="stroke:#B38D22;stroke-width:1.0;"/><text fill="#4169E1" font-family="sans-serif" font-size="13" lengthAdjust="spacing" textLength="63" x="1179" y="464.6997">inScheme</text><text fill="#000000" font-family="sans-serif" font-size="13" lengthAdjust="spacing" textLength="272" x="1250" y="464.6997">Date Specification Types, ConceptScheme</text><text fill="#008000" font-family="sans-serif" font-size="13" lengthAdjust="spacing" textLength="17" x="1530" y="464.6997">[*]</text></g><!--class -334950341--><g id="elem_-334950341"><rect codeLine="24" fill="#F1F1F1" height="62.2344" id="-334950341" rx="2.5" ry="2.5" style="stroke:#000000;stroke-width:0.5;" width="144" x="9" y="160.5"/><text fill="#0000FF" font-family="sans-serif" font-size="12" font-style="italic" lengthAdjust="spacing" textLength="127" x="17.5" y="176.6387">«Spacetime Volume»</text><text fill="#000000" font-family="sans-serif" font-size="13" lengthAdjust="spacing" textLength="34" x="64" y="191.5356">Place</text><line style="stroke:#000000;stroke-width:0.5;" x1="10" x2="152" y1="199.6016" y2="199.6016"/><polygon fill="#FFFF44" points="20,207.668,24,211.668,20,215.668,16,211.668" style="stroke:#B38D22;stroke-width:1.0;"/><text fill="#4169E1" font-family="sans-serif" font-size="13" lengthAdjust="spacing" textLength="30" x="29" y="215.6685">label</text><text fill="#000000" font-family="sans-serif" font-size="13" lengthAdjust="spacing" textLength="39" x="67" y="215.6685">Literal</text><text fill="#008000" font-family="sans-serif" font-size="13" lengthAdjust="spacing" textLength="33" x="114" y="215.6685">[1..*]</text></g><!--class 1637244045--><g id="elem_1637244045"><rect codeLine="27" fill="#F1F1F1" height="62.2344" id="1637244045" rx="2.5" ry="2.5" style="stroke:#000000;stroke-width:0.5;" width="228" x="747" y="255.5"/><text fill="#0000FF" font-family="sans-serif" font-size="12" font-style="italic" lengthAdjust="spacing" textLength="127" x="797.5" y="271.6387">«Information Object»</text><text fill="#000000" font-family="sans-serif" font-size="13" lengthAdjust="spacing" textLength="70" x="826" y="286.5356">Expression</text><line style="stroke:#000000;stroke-width:0.5;" x1="748" x2="974" y1="294.6016" y2="294.6016"/><ellipse cx="758" cy="307.668" fill="#84BE84" rx="3" ry="3" style="stroke:#038048;stroke-width:1.0;"/><text fill="#4169E1" font-family="sans-serif" font-size="13" lengthAdjust="spacing" textLength="129" x="767" y="310.6685">bibliographicCitation</text><text fill="#000000" font-family="sans-serif" font-size="13" lengthAdjust="spacing" textLength="39" x="904" y="310.6685">Literal</text><text fill="#008000" font-family="sans-serif" font-size="13" lengthAdjust="spacing" textLength="18" x="951" y="310.6685">[1]</text></g><!--class -1364852844--><g id="elem_-1364852844"><rect codeLine="30" fill="#F1F1F1" height="85.3672" id="-1364852844" rx="2.5" ry="2.5" style="stroke:#000000;stroke-width:0.5;" width="204" x="272" y="149"/><text fill="#0000FF" font-family="sans-serif" font-size="12" font-style="italic" lengthAdjust="spacing" textLength="123" x="312.5" y="165.1387">«Legal Connotation»</text><text fill="#000000" font-family="sans-serif" font-size="13" lengthAdjust="spacing" textLength="198" x="275" y="180.0356">Holding of a Right or Obligation</text><line style="stroke:#000000;stroke-width:0.5;" x1="273" x2="475" y1="188.1016" y2="188.1016"/><ellipse cx="283" cy="201.168" fill="none" rx="3" ry="3" style="stroke:#038048;stroke-width:1.0;"/><text fill="#4169E1" font-family="sans-serif" font-size="13" lengthAdjust="spacing" textLength="56" x="292" y="204.1685">has note</text><text fill="#000000" font-family="sans-serif" font-size="13" lengthAdjust="spacing" textLength="39" x="356" y="204.1685">Literal</text><text fill="#008000" font-family="sans-serif" font-size="13" lengthAdjust="spacing" textLength="34" x="403" y="204.1685">[0..1]</text><line style="stroke:#000000;stroke-width:0.5;" x1="273" x2="475" y1="211.2344" y2="211.2344"/><polygon fill="#FFFF44" points="283,219.3008,287,223.3008,283,227.3008,279,223.3008" style="stroke:#B38D22;stroke-width:1.0;"/><text fill="#4169E1" font-family="sans-serif" font-size="13" lengthAdjust="spacing" textLength="30" x="292" y="227.3013">label</text><text fill="#000000" font-family="sans-serif" font-size="13" lengthAdjust="spacing" textLength="39" x="330" y="227.3013">Literal</text><text fill="#008000" font-family="sans-serif" font-size="13" lengthAdjust="spacing" textLength="33" x="377" y="227.3013">[1..*]</text></g><!--class -640972234--><g id="elem_-640972234"><rect codeLine="34" fill="#F1F1F1" height="39.1016" id="-640972234" rx="2.5" ry="2.5" style="stroke:#000000;stroke-width:0.5;" width="107" x="1302.5" y="7"/><text fill="#0000FF" font-family="sans-serif" font-size="12" font-style="italic" lengthAdjust="spacing" textLength="105" x="1303.5" y="23.1387">«Persistent Item»</text><text fill="#000000" font-family="sans-serif" font-size="13" lengthAdjust="spacing" textLength="34" x="1339" y="38.0356">Actor</text></g><!--class 2121019810--><g id="elem_2121019810"><rect codeLine="36" fill="#F1F1F1" height="153.0313" id="2121019810" rx="2.5" ry="2.5" style="stroke:#000000;stroke-width:0.5;" width="350" x="686" y="403"/><text fill="#0000FF" font-family="sans-serif" font-size="12" font-style="italic" lengthAdjust="spacing" textLength="80" x="821" y="419.1387">«CRM Entity»</text><text fill="#000000" font-family="sans-serif" font-size="13" lengthAdjust="spacing" textLength="69" x="826.5" y="434.0356">Time-Span</text><line style="stroke:#000000;stroke-width:0.5;" x1="687" x2="1035" y1="442.1016" y2="442.1016"/><ellipse cx="697" cy="455.168" fill="none" rx="3" ry="3" style="stroke:#038048;stroke-width:1.0;"/><text fill="#4169E1" font-family="sans-serif" font-size="13" lengthAdjust="spacing" textLength="116" x="706" y="458.1685">begin of the begin</text><text fill="#000000" font-family="sans-serif" font-size="13" lengthAdjust="spacing" textLength="158" x="830" y="458.1685">date, gYear, gYearMonth</text><text fill="#008000" font-family="sans-serif" font-size="13" lengthAdjust="spacing" textLength="34" x="996" y="458.1685">[0..1]</text><ellipse cx="697" cy="470.3008" fill="none" rx="3" ry="3" style="stroke:#038048;stroke-width:1.0;"/><text fill="#4169E1" font-family="sans-serif" font-size="13" lengthAdjust="spacing" textLength="105" x="706" y="473.3013">end of the begin</text><text fill="#000000" font-family="sans-serif" font-size="13" lengthAdjust="spacing" textLength="158" x="819" y="473.3013">date, gYear, gYearMonth</text><text fill="#008000" font-family="sans-serif" font-size="13" lengthAdjust="spacing" textLength="34" x="985" y="473.3013">[0..1]</text><ellipse cx="697" cy="485.4336" fill="none" rx="3" ry="3" style="stroke:#038048;stroke-width:1.0;"/><text fill="#4169E1" font-family="sans-serif" font-size="13" lengthAdjust="spacing" textLength="105" x="706" y="488.4341">begin of the end</text><text fill="#000000" font-family="sans-serif" font-size="13" lengthAdjust="spacing" textLength="158" x="819" y="488.4341">date, gYear, gYearMonth</text><text fill="#008000" font-family="sans-serif" font-size="13" lengthAdjust="spacing" textLength="34" x="985" y="488.4341">[0..1]</text><ellipse cx="697" cy="500.5664" fill="none" rx="3" ry="3" style="stroke:#038048;stroke-width:1.0;"/><text fill="#4169E1" font-family="sans-serif" font-size="13" lengthAdjust="spacing" textLength="94" x="706" y="503.5669">end of the end</text><text fill="#000000" font-family="sans-serif" font-size="13" lengthAdjust="spacing" textLength="158" x="808" y="503.5669">date, gYear, gYearMonth</text><text fill="#008000" font-family="sans-serif" font-size="13" lengthAdjust="spacing" textLength="34" x="974" y="503.5669">[0..1]</text><ellipse cx="697" cy="515.6992" fill="none" rx="3" ry="3" style="stroke:#038048;stroke-width:1.0;"/><text fill="#4169E1" font-family="sans-serif" font-size="13" lengthAdjust="spacing" textLength="154" x="706" y="518.6997">beginning is qualified by</text><text fill="#000000" font-family="sans-serif" font-size="13" lengthAdjust="spacing" textLength="39" x="868" y="518.6997">Literal</text><text fill="#008000" font-family="sans-serif" font-size="13" lengthAdjust="spacing" textLength="34" x="915" y="518.6997">[0..1]</text><ellipse cx="697" cy="530.832" fill="none" rx="3" ry="3" style="stroke:#038048;stroke-width:1.0;"/><text fill="#4169E1" font-family="sans-serif" font-size="13" lengthAdjust="spacing" textLength="116" x="706" y="533.8325">end is qualified by</text><text fill="#000000" font-family="sans-serif" font-size="13" lengthAdjust="spacing" textLength="39" x="830" y="533.8325">Literal</text><text fill="#008000" font-family="sans-serif" font-size="13" lengthAdjust="spacing" textLength="34" x="877" y="533.8325">[0..1]</text><ellipse cx="697" cy="545.9648" fill="none" rx="3" ry="3" style="stroke:#038048;stroke-width:1.0;"/><text fill="#4169E1" font-family="sans-serif" font-size="13" lengthAdjust="spacing" textLength="56" x="706" y="548.9653">has note</text><text fill="#000000" font-family="sans-serif" font-size="13" lengthAdjust="spacing" textLength="39" x="770" y="548.9653">Literal</text><text fill="#008000" font-family="sans-serif" font-size="13" lengthAdjust="spacing" textLength="34" x="817" y="548.9653">[0..1]</text></g><!--class 1963030227--><g id="elem_1963030227"><rect codeLine="45" fill="#F1F1F1" height="62.2344" id="1963030227" rx="2.5" ry="2.5" style="stroke:#000000;stroke-width:0.5;" width="338" x="1187" y="511.5"/><text fill="#0000FF" font-family="sans-serif" font-size="12" font-style="italic" lengthAdjust="spacing" textLength="125" x="1293.5" y="527.6387">«Temporal duration»</text><text fill="#000000" font-family="sans-serif" font-size="13" lengthAdjust="spacing" textLength="89" x="1311.5" y="542.5356">Time duration</text><line style="stroke:#000000;stroke-width:0.5;" x1="1188" x2="1524" y1="550.6016" y2="550.6016"/><ellipse cx="1198" cy="563.668" fill="#84BE84" rx="3" ry="3" style="stroke:#038048;stroke-width:1.0;"/><text fill="#4169E1" font-family="sans-serif" font-size="13" lengthAdjust="spacing" textLength="228" x="1207" y="566.6685">Numeric value of temporal duration</text><text fill="#000000" font-family="sans-serif" font-size="13" lengthAdjust="spacing" textLength="50" x="1443" y="566.6685">decimal</text><text fill="#008000" font-family="sans-serif" font-size="13" lengthAdjust="spacing" textLength="18" x="1501" y="566.6685">[1]</text></g><!--class 1798358405--><g id="elem_1798358405"><rect codeLine="48" fill="#F1F1F1" height="39.1016" id="1798358405" rx="2.5" ry="2.5" style="stroke:#000000;stroke-width:0.5;" width="127" x="1714" y="523"/><text fill="#0000FF" font-family="sans-serif" font-size="12" font-style="italic" lengthAdjust="spacing" textLength="125" x="1715" y="539.1387">«Temporal duration»</text><text fill="#000000" font-family="sans-serif" font-size="13" lengthAdjust="spacing" textLength="89" x="1733" y="554.0356">Temporal unit</text></g><!--link 443291334 to -640972234--><g id="link_443291334_-640972234"><path codeLine="50" d="M866.262,26.5 C903.541,26.5 1175.67,26.5 1296.95,26.5 " fill="none" id="443291334-to--640972234" style="stroke:#999999;stroke-width:1.0;"/><polygon fill="#999999" points="1302.25,26.5,1293.2615,22.4743,1297.25,26.4857,1293.2386,30.4743,1302.25,26.5" style="stroke:#999999;stroke-width:1.0;"/><text fill="#999999" font-family="sans-serif" font-size="13" lengthAdjust="spacing" textLength="47" x="1074" y="22.5669">[] / first</text><text fill="#999999" font-family="sans-serif" font-size="13" lengthAdjust="spacing" textLength="23" x="1271.2977" y="39.4829">1..*</text></g><!--link -334950341 to -1364852844--><g id="link_-334950341_-1364852844"><path codeLine="51" d="M153.187,191.5 C187.325,191.5 228.925,191.5 266.712,191.5 " fill="none" id="-334950341-to--1364852844" style="stroke:#000000;stroke-width:1.0;"/><polygon fill="#000000" points="271.778,191.5,262.778,187.5,266.778,191.5,262.778,195.5,271.778,191.5" style="stroke:#000000;stroke-width:1.0;"/><text fill="#000000" font-family="sans-serif" font-size="13" lengthAdjust="spacing" textLength="77" x="174" y="187.5669">is subject to</text><text fill="#000000" font-family="sans-serif" font-size="13" lengthAdjust="spacing" textLength="7" x="257.014" y="204.1091">*</text></g><!--link 1637244045 to -1278121195--><g id="link_1637244045_-1278121195"><path codeLine="52" d="M975.104,286.5 C1035.23,286.5 1110.5,286.5 1178.15,286.5 " fill="none" id="1637244045-to--1278121195" style="stroke:#008000;stroke-width:2.0;"/><polygon fill="#008000" points="1183.42,286.5,1174.42,282.5,1178.42,286.5,1174.42,290.5,1183.42,286.5" style="stroke:#008000;stroke-width:2.0;"/><text fill="#008000" font-family="sans-serif" font-size="13" lengthAdjust="spacing" textLength="56" x="1069.5" y="282.5669">has type</text><text fill="#008000" font-family="sans-serif" font-size="13" lengthAdjust="spacing" textLength="8" x="1167.4187" y="298.9037">1</text></g><!--link -1364852844 to 443291334--><g id="link_-1364852844_443291334"><path codeLine="53" d="M426.619,148.893 C447.178,133.672 471.703,117.568 496,106.5 C628.155,46.299 808.373,30.166 850.795,27.103 " fill="none" id="-1364852844-to-443291334" style="stroke:#008000;stroke-width:2.0;"/><polygon fill="#008000" points="855.847,26.754,846.5929,23.3833,850.8589,27.0984,847.1439,31.3643,855.847,26.754" style="stroke:#008000;stroke-width:2.0;"/><text fill="#008000" font-family="sans-serif" font-size="13" lengthAdjust="spacing" textLength="60" x="551" y="50.5669">is right of</text><text fill="#008000" font-family="sans-serif" font-size="13" lengthAdjust="spacing" textLength="8" x="839.8381" y="45.6056">1</text></g><!--link -1364852844 to -525828125--><g id="link_-1364852844_-525828125"><path codeLine="54" d="M476.082,191.5 C536.946,191.5 616.079,191.5 686.676,191.5 " fill="none" id="-1364852844-to--525828125" style="stroke:#008000;stroke-width:2.0;"/><polygon fill="#008000" points="691.744,191.5,682.744,187.5,686.744,191.5,682.744,195.5,691.744,191.5" style="stroke:#008000;stroke-width:2.0;"/><text fill="#008000" font-family="sans-serif" font-size="13" lengthAdjust="spacing" textLength="56" x="553" y="187.5669">has type</text><text fill="#008000" font-family="sans-serif" font-size="13" lengthAdjust="spacing" textLength="24" x="660.0973" y="203.8805">0..1</text></g><!--link -1364852844 to 1637244045--><g id="link_-1364852844_1637244045"><path codeLine="55" d="M476.287,214.374 C482.953,215.795 489.569,217.182 496,218.5 C577.799,235.262 670.293,252.519 741.573,265.454 " fill="none" id="-1364852844-to-1637244045" style="stroke:#000000;stroke-width:1.0;"/><polygon fill="#000000" points="746.668,266.378,738.5269,260.8353,741.7484,265.4852,737.0984,268.7067,746.668,266.378" style="stroke:#000000;stroke-width:1.0;"/><text fill="#000000" font-family="sans-serif" font-size="13" lengthAdjust="spacing" textLength="110" x="526" y="214.5669">is documented in</text><text fill="#000000" font-family="sans-serif" font-size="13" lengthAdjust="spacing" textLength="24" x="714.9696" y="277.6726">0..1</text></g><!--link -1364852844 to 2121019810--><g id="link_-1364852844_2121019810"><path codeLine="56" d="M432.266,234.173 C452.123,248.438 474.74,264.104 496,277.5 C564.223,320.488 642.119,364.374 708.299,400.211 " fill="none" id="-1364852844-to-2121019810" style="stroke:#000000;stroke-width:1.0;"/><polygon fill="#000000" points="713.043,402.777,707.0321,394.9752,708.6458,400.397,703.224,402.0107,713.043,402.777" style="stroke:#000000;stroke-width:1.0;"/><text fill="#000000" font-family="sans-serif" font-size="13" lengthAdjust="spacing" textLength="92" x="535" y="273.5669">has time-span</text><text fill="#000000" font-family="sans-serif" font-size="13" lengthAdjust="spacing" textLength="24" x="673.7971" y="391.8212">0..1</text></g><!--link -1364852844 to -1364852844--><g id="link_-1364852844_-1364852844"><path codeLine="57" d="M344.807,148.629 C340.988,127.632 350.719,109 374,109 C395.281,109 405.24,124.567 403.877,143.278 " fill="none" id="-1364852844-to--1364852844" style="stroke:#000000;stroke-width:1.0;"/><polygon fill="#000000" points="403.193,148.629,408.3047,140.2105,403.8286,143.6696,400.3696,139.1935,403.193,148.629" style="stroke:#000000;stroke-width:1.0;"/><text fill="#000000" font-family="sans-serif" font-size="13" lengthAdjust="spacing" textLength="77" x="335.5" y="100.0669">aggregation</text><text fill="#000000" font-family="sans-serif" font-size="13" lengthAdjust="spacing" textLength="24" x="381.8257" y="137.9649">0..1</text></g><!--link -1364852844 to -988551484--><g id="link_-1364852844_-988551484"><path codeLine="58" d="M476.259,168.486 C482.932,167.099 489.557,165.758 496,164.5 C562.808,151.458 636.85,138.736 700.618,128.314 " fill="none" id="-1364852844-to--988551484" style="stroke:#008000;stroke-width:2.0;"/><polygon fill="#008000" points="705.581,127.504,696.0548,125.0036,700.6461,128.3082,697.3415,132.8994,705.581,127.504" style="stroke:#008000;stroke-width:2.0;"/><text fill="#008000" font-family="sans-serif" font-size="13" lengthAdjust="spacing" textLength="168" x="497" y="129.5669">has holding of a right type</text><text fill="#008000" font-family="sans-serif" font-size="13" lengthAdjust="spacing" textLength="8" x="689.361" y="141.1919">1</text></g><!--link 2121019810 to -815559484--><g id="link_2121019810_-815559484"><path codeLine="59" d="M1036.16,468.195 C1074.08,465.734 1114.51,463.11 1153.4,460.586 " fill="none" id="2121019810-to--815559484" style="stroke:#008000;stroke-width:2.0;"/><polygon fill="#008000" points="1158.63,460.246,1149.3963,456.8198,1153.6399,460.5604,1149.8993,464.804,1158.63,460.246" style="stroke:#008000;stroke-width:2.0;"/><text fill="#008000" font-family="sans-serif" font-size="13" lengthAdjust="spacing" textLength="56" x="1069.5" y="457.5669">has type</text><text fill="#008000" font-family="sans-serif" font-size="13" lengthAdjust="spacing" textLength="24" x="1127.1058" y="473.0381">0..1</text></g><!--link 2121019810 to 1963030227--><g id="link_2121019810_1963030227"><path codeLine="60" d="M1036.16,501.7558 C1083.35,507.7861 1134.42,514.3125 1181.57,520.3377 " fill="none" id="2121019810-to-1963030227" style="stroke:#000000;stroke-width:1.0;"/><polygon fill="#000000" points="1186.71,520.9943,1178.2843,515.8945,1181.7497,520.3657,1177.2785,523.831,1186.71,520.9943" style="stroke:#000000;stroke-width:1.0;"/><text fill="#000000" font-family="sans-serif" font-size="13" lengthAdjust="spacing" textLength="81" x="1057" y="500.5669">had duration</text><text fill="#000000" font-family="sans-serif" font-size="13" lengthAdjust="spacing" textLength="24" x="1155.0618" y="532.4682">0..1</text></g><!--link 2121019810 to 2121019810--><g id="link_2121019810_2121019810"><path codeLine="61" d="M816.882,402.752 C818.407,380.351 833.113,363 861,363 C886.708,363 901.214,377.746 904.519,397.6 " fill="none" id="2121019810-to-2121019810" style="stroke:#000000;stroke-width:1.0;"/><polygon fill="#000000" points="905.118,402.752,908.0525,393.3505,904.5409,397.7854,900.106,394.2738,905.118,402.752" style="stroke:#000000;stroke-width:1.0;"/><text fill="#000000" font-family="sans-serif" font-size="13" lengthAdjust="spacing" textLength="117" x="802.5" y="354.0669">was Derived From</text><text fill="#000000" font-family="sans-serif" font-size="13" lengthAdjust="spacing" textLength="24" x="884.0789" y="392.057">0..1</text></g><!--link 1963030227 to 1798358405--><g id="link_1963030227_1798358405"><path codeLine="62" d="M1525.21,542.5 C1589.45,542.5 1659.1,542.5 1708.75,542.5 " fill="none" id="1963030227-to-1798358405" style="stroke:#000000;stroke-width:1.0;"/><polygon fill="#000000" points="1713.79,542.5,1704.79,538.5,1708.79,542.5,1704.79,546.5,1713.79,542.5" style="stroke:#000000;stroke-width:1.0;"/><text fill="#000000" font-family="sans-serif" font-size="13" lengthAdjust="spacing" textLength="119" x="1574" y="538.5669">temporal unit type</text><text fill="#000000" font-family="sans-serif" font-size="13" lengthAdjust="spacing" textLength="8" x="1697.961" y="555.4359">1</text></g><!--SRC=[lLPTRzD857tthxXAtrWI_DdOeOe4QH18i21IhRH2F8pjQtkszamOJoXPrF- -T-mqTjgajCeMvI7sUERSS-xNt18p3Lg2udcX8UKA4ysbi0gU8YHS9IMsprWjzHegh69KjLLVSh5aYbKGi-GoLt8bqfaifOAhWcliVP-LhAuN6XLAlLxY6obqkp4kL_rzGgPOun9ykxUecBYyizWW6fm5_nV1yNgV5WLBvHKNEMIihD5Ap5OOq8_LC7JSSUYuZXC502Vp-VnboGLESeKeuAVrC-DOfjSdS9OOVXCbrwnyJIIdN2oI0YiyUz5ycGASosHLeT1mGPBgvp2J8i6bRhV13KA3FFtoxElDGUjwbv7lUsxaU9w_Zy-jlSCe38F0yKF_MFAVcr0VntmOk47eaZUFTkMhBECbPoRfZkKKEa4GHF-3XywPHbWiCU4PJuwZzgba2RRqACvHO7k-0sTdYoKjQquOVycIKcawXPE6RapxBmtT2dKXz_8jMOnbH_OzrPjYvMqopcYqZy_ynr9XNPEaXfHpwerTtxVzW4Yz4vbKLQltO_mFTOA3jFwuIolcSSbbhjYouCcCwmRdrpJtS7mhozJKiCo0RRAL-iL7WiyRq4qrUwT-6BYXxnFrzvWJDaL7oDRmKpjqaqvx_50GEMA1lmIqHwDzwbybMgfMugblHsFNzOp2JzHsUQrDqtcdiRgZRtl-Wh9gIFdLkicbXcSxKUZOX37x_07cGdEzlkkUWtfYpBamiT05GlFIAKkfK9v3_ZSojVdxG7svk5_fOLCeqjzZQ4SJMVqTYfxIJAD7c9hXDNnRiP8Q5wOGhn-PXFSBUIhiOol6P3oaAzKr1oSwzMpFTjqnPVq5ZIxIeDriUKnN-vEQi-89V6VqreJoDbelg7HXL0zhSLjEAy5rItaSXLuG-dRm8ChNrc0xFGnWE9p2m3GekWgxhZ604uq_z2IAelOkf0UOm9Uly08ohcfj3RfBQGFI87IjbI1QYnCJ_NhLt0eqBrg3xkQuCT-St8vOWmtXnWal6nxjeraTnTJY2TD4tao5rgxDBLvFuWFGY64xnifi7w397iDnExeSJN63s7T5trtfPagaQk7YdlDTZ-wTR-oQLbvJAxzFpjvWiPoKjBVb8Tzs0-M3_L3qB-RMrQrh-Wfso6r7iaVw-X1WLzWxhagtXNBuw5ulNv75SohmxnIZDqfMrew5hQ-wukoTrVqQRdZ_1m00]--></g></svg>