<?xml version="1.0" encoding="UTF-8" standalone="no"?>
<svg xmlns="http://www.w3.org/2000/svg" xmlns:xlink="http://www.w3.org/1999/xlink" contentStyleType="text/css" height="107px" preserveAspectRatio="none" style="width:991px;height:107px;background:#FFFFFF;" version="1.1" viewBox="0 0 991 107" width="991px" zoomAndPan="magnify"><defs/><g><!--class -334950341--><g id="elem_-334950341"><rect codeLine="10" fill="#F1F1F1" height="62.2344" id="-334950341" rx="2.5" ry="2.5" style="stroke:#000000;stroke-width:0.5;" width="144" x="9" y="21.5"/><text fill="#0000FF" font-family="sans-serif" font-size="12" font-style="italic" lengthAdjust="spacing" textLength="127" x="17.5" y="37.6387">«Spacetime Volume»</text><text fill="#000000" font-family="sans-serif" font-size="13" lengthAdjust="spacing" textLength="34" x="64" y="52.5356">Place</text><line style="stroke:#000000;stroke-width:0.5;" x1="10" x2="152" y1="60.6016" y2="60.6016"/><polygon fill="#FFFF44" points="20,68.668,24,72.668,20,76.668,16,72.668" style="stroke:#B38D22;stroke-width:1.0;"/><text fill="#4169E1" font-family="sans-serif" font-size="13" lengthAdjust="spacing" textLength="30" x="29" y="76.6685">label</text><text fill="#000000" font-family="sans-serif" font-size="13" lengthAdjust="spacing" textLength="39" x="67" y="76.6685">Literal</text><text fill="#008000" font-family="sans-serif" font-size="13" lengthAdjust="spacing" textLength="33" x="114" y="76.6685">[1..*]</text></g><!--class 1259173463--><g id="elem_1259173463"><rect codeLine="13" fill="#F1F1F1" height="77.3672" id="1259173463" rx="2.5" ry="2.5" style="stroke:#000000;stroke-width:0.5;" width="320" x="390" y="14"/><text fill="#0000FF" font-family="sans-serif" font-size="12" font-style="italic" lengthAdjust="spacing" textLength="98" x="501" y="30.1387">«Spatial Object»</text><text fill="#000000" font-family="sans-serif" font-size="13" lengthAdjust="spacing" textLength="65" x="517.5" y="45.0356">Geometry</text><line style="stroke:#000000;stroke-width:0.5;" x1="391" x2="709" y1="53.1016" y2="53.1016"/><ellipse cx="401" cy="66.168" fill="none" rx="3" ry="3" style="stroke:#038048;stroke-width:1.0;"/><text fill="#4169E1" font-family="sans-serif" font-size="13" lengthAdjust="spacing" textLength="201" x="410" y="69.1685">has spatial resolution in meters</text><text fill="#000000" font-family="sans-serif" font-size="13" lengthAdjust="spacing" textLength="43" x="619" y="69.1685">double</text><text fill="#008000" font-family="sans-serif" font-size="13" lengthAdjust="spacing" textLength="34" x="670" y="69.1685">[0..1]</text><ellipse cx="401" cy="81.3008" fill="none" rx="3" ry="3" style="stroke:#038048;stroke-width:1.0;"/><text fill="#4169E1" font-family="sans-serif" font-size="13" lengthAdjust="spacing" textLength="196" x="410" y="84.3013">has spatial accuracy in meters</text><text fill="#000000" font-family="sans-serif" font-size="13" lengthAdjust="spacing" textLength="43" x="614" y="84.3013">double</text><text fill="#008000" font-family="sans-serif" font-size="13" lengthAdjust="spacing" textLength="34" x="665" y="84.3013">[0..1]</text></g><!--class 1037976763--><g id="elem_1037976763"><rect codeLine="17" fill="#F1F1F1" height="25.1328" id="1037976763" rx="2.5" ry="2.5" style="stroke:#000000;stroke-width:0.5;" width="106" x="853" y="7"/><text fill="#000000" font-family="sans-serif" font-size="13" lengthAdjust="spacing" textLength="100" x="856" y="24.0669">GeoJSON Literal</text></g><!--class 1097774324--><g id="elem_1097774324"><rect codeLine="19" fill="#F1F1F1" height="25.1328" id="1097774324" rx="2.5" ry="2.5" style="stroke:#000000;stroke-width:0.5;" width="156" x="828" y="72"/><text fill="#000000" font-family="sans-serif" font-size="13" lengthAdjust="spacing" textLength="150" x="831" y="89.0669">Well-known Text Literal</text></g><!--class 84481564--><g id="elem_84481564"><rect codeLine="21" fill="#F1F1F1" height="39.1016" id="84481564" rx="2.5" ry="2.5" style="stroke:#000000;stroke-width:0.5;" width="75" x="274" y="33"/><text fill="#0000FF" font-family="sans-serif" font-size="12" font-style="italic" lengthAdjust="spacing" textLength="73" x="275" y="49.1387">«Geometry»</text><text fill="#000000" font-family="sans-serif" font-size="13" lengthAdjust="spacing" textLength="32" x="295.5" y="64.0356">Point</text></g><!--link 84481564 to 1259173463--><g id="link_84481564_1259173463"><path codeLine="23" d="M349.194,52.5 C355.466,52.5 362.335,52.5 369.632,52.5 " fill="none" id="84481564-to-1259173463" style="stroke:#9999FF;stroke-width:1.0;"/><polygon fill="none" points="369.833,45.5,389.833,52.5,369.833,59.5,369.833,45.5" style="stroke:#9999FF;stroke-width:1.0;"/></g><!--link -334950341 to 84481564--><g id="link_-334950341_84481564"><path codeLine="24" d="M153.046,52.5 C190.975,52.5 236.354,52.5 268.63,52.5 " fill="none" id="-334950341-to-84481564" style="stroke:#000000;stroke-width:1.0;"/><polygon fill="#000000" points="273.694,52.5,264.694,48.5,268.694,52.5,264.694,56.5,273.694,52.5" style="stroke:#000000;stroke-width:1.0;"/><text fill="#000000" font-family="sans-serif" font-size="13" lengthAdjust="spacing" textLength="79" x="174" y="48.5669">has centroid</text><text fill="#000000" font-family="sans-serif" font-size="13" lengthAdjust="spacing" textLength="8" x="257.986" y="65.9526">1</text></g><!--link 1259173463 to 1097774324--><g id="link_1259173463_1097774324"><path codeLine="25" d="M710.35,84.3381 C716.974,85.1639 723.544,85.8923 730,86.5 C764.514,89.7489 773.335,86.8574 808,86.5 C812.863,86.4499 817.864,86.3856 822.908,86.3111 " fill="none" id="1259173463-to-1097774324" style="stroke:#000000;stroke-width:1.0;"/><polygon fill="#000000" points="827.964,86.2332,818.9034,82.3725,822.9646,86.3103,819.0268,90.3716,827.964,86.2332" style="stroke:#000000;stroke-width:1.0;"/><text fill="#000000" font-family="sans-serif" font-size="13" lengthAdjust="spacing" textLength="48" x="745" y="82.5669">as WKT</text><text fill="#000000" font-family="sans-serif" font-size="13" lengthAdjust="spacing" textLength="8" x="811.8886" y="99.209">1</text></g><!--link 1259173463 to 1037976763--><g id="link_1259173463_1037976763"><path codeLine="26" d="M710.137,37.6652 C759.151,33.0961 810.012,28.3549 847.477,24.8623 " fill="none" id="1259173463-to-1037976763" style="stroke:#000000;stroke-width:1.0;"/><polygon fill="#000000" points="852.906,24.3563,843.5735,21.2093,847.9276,24.8206,844.3163,29.1747,852.906,24.3563" style="stroke:#000000;stroke-width:1.0;"/><text fill="#000000" font-family="sans-serif" font-size="13" lengthAdjust="spacing" textLength="76" x="731" y="25.5669">as GeoJSON</text><text fill="#000000" font-family="sans-serif" font-size="13" lengthAdjust="spacing" textLength="24" x="820.9727" y="37.9291">0..1</text></g><!--SRC=[dLB1Zfim5Bpp5K_arYffM4XOeeX3LzfARTLTYLNtKFLWp4jmCJQoZLAwct-lWR2mIIjLlLdFC-DvC-QuCs0aABRF3MHC8JLC2YTd6G9bYdBiprXMfe4IonILTdJ1H4KKAI4bjDWhMOliHdAfu90pWvFx6qwqJWmgbAQfy5OAqmDJNaznGcQeiO9WEHag8egBOQVOwYJi5uBdJwwId6JomCGUTeHhT6WB1VUU4uek40rptm-YrT8FFDXkaygE3IiHlafUbnZ7CEDCu2Qr-0AUdASIJIwpumosjFMyKR8X_Bqr7dEI8j- -wyOnm6Uxj28S1k1U8OhucxTOlFa-e9pZuES3IgkiciwITxMAlD0FrdvloJ2hSvV-i4LS6jenvDdnxQMVt2hf4rcXjlkqDG8JjZ9hJOzMCrcd7C-TBXSBRtJwR-yGIcj5QFE_hqpp-9ZSVHbIx6DP-c4KhaCRora8BxH7v7nU27aGy80_pHaz2iCmyA-2lzBl9HEc0ry7mRMtMWUsWA6QY-YFZZl0N9ZFdsDmn-RS4pYARXrt_6CjiCMvCE7EUiKDj55I54P9bZcln5vOunOJdgKzVdhu0wDDjoCDoRqcdLB-3G00]--></g></svg>