<?xml version="1.0" encoding="UTF-8" standalone="no"?>
<svg xmlns="http://www.w3.org/2000/svg" xmlns:xlink="http://www.w3.org/1999/xlink" contentStyleType="text/css" height="435px" preserveAspectRatio="none" style="width:1889px;height:435px;background:#FFFFFF;" version="1.1" viewBox="0 0 1889 435" width="1889px" zoomAndPan="magnify"><defs/><g><!--class 1651842394--><g id="elem_1651842394"><rect codeLine="10" fill="#EEEEEE" height="48.2656" id="1651842394" rx="2.5" ry="2.5" style="stroke:#008000;stroke-width:0.5;" width="345" x="1195.5" y="14"/><text fill="#000000" font-family="sans-serif" font-size="13" lengthAdjust="spacing" textLength="4" x="1366" y="31.0669"> </text><line style="stroke:#008000;stroke-width:0.5;" x1="1196.5" x2="1539.5" y1="39.1328" y2="39.1328"/><polygon fill="none" points="1206.5,47.1992,1210.5,51.1992,1206.5,55.1992,1202.5,51.1992" style="stroke:#B38D22;stroke-width:1.0;"/><text fill="#4169E1" font-family="sans-serif" font-size="13" lengthAdjust="spacing" textLength="63" x="1215.5" y="55.1997">inScheme</text><text fill="#000000" font-family="sans-serif" font-size="13" lengthAdjust="spacing" textLength="223" x="1286.5" y="55.1997">Document Types, ConceptScheme</text><text fill="#008000" font-family="sans-serif" font-size="13" lengthAdjust="spacing" textLength="17" x="1517.5" y="55.1997">[*]</text></g><!--class -1789188227--><g id="elem_-1789188227"><rect codeLine="13" fill="#EEEEEE" height="48.2656" id="-1789188227" rx="2.5" ry="2.5" style="stroke:#008000;stroke-width:0.5;" width="394" x="1171" y="141"/><text fill="#000000" font-family="sans-serif" font-size="13" lengthAdjust="spacing" textLength="4" x="1366" y="158.0669"> </text><line style="stroke:#008000;stroke-width:0.5;" x1="1172" x2="1564" y1="166.1328" y2="166.1328"/><polygon fill="none" points="1182,174.1992,1186,178.1992,1182,182.1992,1178,178.1992" style="stroke:#B38D22;stroke-width:1.0;"/><text fill="#4169E1" font-family="sans-serif" font-size="13" lengthAdjust="spacing" textLength="63" x="1191" y="182.1997">inScheme</text><text fill="#000000" font-family="sans-serif" font-size="13" lengthAdjust="spacing" textLength="272" x="1262" y="182.1997">Date Specification Types, ConceptScheme</text><text fill="#008000" font-family="sans-serif" font-size="13" lengthAdjust="spacing" textLength="17" x="1542" y="182.1997">[*]</text></g><!--class -334950341--><g id="elem_-334950341"><rect codeLine="16" fill="#F1F1F1" height="62.2344" id="-334950341" rx="2.5" ry="2.5" style="stroke:#000000;stroke-width:0.5;" width="144" x="9" y="200"/><text fill="#0000FF" font-family="sans-serif" font-size="12" font-style="italic" lengthAdjust="spacing" textLength="127" x="17.5" y="216.1387">«Spacetime Volume»</text><text fill="#000000" font-family="sans-serif" font-size="13" lengthAdjust="spacing" textLength="34" x="64" y="231.0356">Place</text><line style="stroke:#000000;stroke-width:0.5;" x1="10" x2="152" y1="239.1016" y2="239.1016"/><polygon fill="#FFFF44" points="20,247.168,24,251.168,20,255.168,16,251.168" style="stroke:#B38D22;stroke-width:1.0;"/><text fill="#4169E1" font-family="sans-serif" font-size="13" lengthAdjust="spacing" textLength="30" x="29" y="255.1685">label</text><text fill="#000000" font-family="sans-serif" font-size="13" lengthAdjust="spacing" textLength="39" x="67" y="255.1685">Literal</text><text fill="#008000" font-family="sans-serif" font-size="13" lengthAdjust="spacing" textLength="33" x="114" y="255.1685">[1..*]</text></g><!--class 1637244045--><g id="elem_1637244045"><rect codeLine="19" fill="#F1F1F1" height="62.2344" id="1637244045" rx="2.5" ry="2.5" style="stroke:#000000;stroke-width:0.5;" width="228" x="720" y="7"/><text fill="#0000FF" font-family="sans-serif" font-size="12" font-style="italic" lengthAdjust="spacing" textLength="127" x="770.5" y="23.1387">«Information Object»</text><text fill="#000000" font-family="sans-serif" font-size="13" lengthAdjust="spacing" textLength="70" x="799" y="38.0356">Expression</text><line style="stroke:#000000;stroke-width:0.5;" x1="721" x2="947" y1="46.1016" y2="46.1016"/><ellipse cx="731" cy="59.168" fill="#84BE84" rx="3" ry="3" style="stroke:#038048;stroke-width:1.0;"/><text fill="#4169E1" font-family="sans-serif" font-size="13" lengthAdjust="spacing" textLength="129" x="740" y="62.1685">bibliographicCitation</text><text fill="#000000" font-family="sans-serif" font-size="13" lengthAdjust="spacing" textLength="39" x="877" y="62.1685">Literal</text><text fill="#008000" font-family="sans-serif" font-size="13" lengthAdjust="spacing" textLength="18" x="924" y="62.1685">[1]</text></g><!--class 2121019810--><g id="elem_2121019810"><rect codeLine="22" fill="#F1F1F1" height="153.0313" id="2121019810" rx="2.5" ry="2.5" style="stroke:#000000;stroke-width:0.5;" width="350" x="659" y="154.5"/><text fill="#0000FF" font-family="sans-serif" font-size="12" font-style="italic" lengthAdjust="spacing" textLength="80" x="794" y="170.6387">«CRM Entity»</text><text fill="#000000" font-family="sans-serif" font-size="13" lengthAdjust="spacing" textLength="69" x="799.5" y="185.5356">Time-Span</text><line style="stroke:#000000;stroke-width:0.5;" x1="660" x2="1008" y1="193.6016" y2="193.6016"/><ellipse cx="670" cy="206.668" fill="none" rx="3" ry="3" style="stroke:#038048;stroke-width:1.0;"/><text fill="#4169E1" font-family="sans-serif" font-size="13" lengthAdjust="spacing" textLength="116" x="679" y="209.6685">begin of the begin</text><text fill="#000000" font-family="sans-serif" font-size="13" lengthAdjust="spacing" textLength="158" x="803" y="209.6685">date, gYear, gYearMonth</text><text fill="#008000" font-family="sans-serif" font-size="13" lengthAdjust="spacing" textLength="34" x="969" y="209.6685">[0..1]</text><ellipse cx="670" cy="221.8008" fill="none" rx="3" ry="3" style="stroke:#038048;stroke-width:1.0;"/><text fill="#4169E1" font-family="sans-serif" font-size="13" lengthAdjust="spacing" textLength="105" x="679" y="224.8013">end of the begin</text><text fill="#000000" font-family="sans-serif" font-size="13" lengthAdjust="spacing" textLength="158" x="792" y="224.8013">date, gYear, gYearMonth</text><text fill="#008000" font-family="sans-serif" font-size="13" lengthAdjust="spacing" textLength="34" x="958" y="224.8013">[0..1]</text><ellipse cx="670" cy="236.9336" fill="none" rx="3" ry="3" style="stroke:#038048;stroke-width:1.0;"/><text fill="#4169E1" font-family="sans-serif" font-size="13" lengthAdjust="spacing" textLength="105" x="679" y="239.9341">begin of the end</text><text fill="#000000" font-family="sans-serif" font-size="13" lengthAdjust="spacing" textLength="158" x="792" y="239.9341">date, gYear, gYearMonth</text><text fill="#008000" font-family="sans-serif" font-size="13" lengthAdjust="spacing" textLength="34" x="958" y="239.9341">[0..1]</text><ellipse cx="670" cy="252.0664" fill="none" rx="3" ry="3" style="stroke:#038048;stroke-width:1.0;"/><text fill="#4169E1" font-family="sans-serif" font-size="13" lengthAdjust="spacing" textLength="94" x="679" y="255.0669">end of the end</text><text fill="#000000" font-family="sans-serif" font-size="13" lengthAdjust="spacing" textLength="158" x="781" y="255.0669">date, gYear, gYearMonth</text><text fill="#008000" font-family="sans-serif" font-size="13" lengthAdjust="spacing" textLength="34" x="947" y="255.0669">[0..1]</text><ellipse cx="670" cy="267.1992" fill="none" rx="3" ry="3" style="stroke:#038048;stroke-width:1.0;"/><text fill="#4169E1" font-family="sans-serif" font-size="13" lengthAdjust="spacing" textLength="154" x="679" y="270.1997">beginning is qualified by</text><text fill="#000000" font-family="sans-serif" font-size="13" lengthAdjust="spacing" textLength="39" x="841" y="270.1997">Literal</text><text fill="#008000" font-family="sans-serif" font-size="13" lengthAdjust="spacing" textLength="34" x="888" y="270.1997">[0..1]</text><ellipse cx="670" cy="282.332" fill="none" rx="3" ry="3" style="stroke:#038048;stroke-width:1.0;"/><text fill="#4169E1" font-family="sans-serif" font-size="13" lengthAdjust="spacing" textLength="116" x="679" y="285.3325">end is qualified by</text><text fill="#000000" font-family="sans-serif" font-size="13" lengthAdjust="spacing" textLength="39" x="803" y="285.3325">Literal</text><text fill="#008000" font-family="sans-serif" font-size="13" lengthAdjust="spacing" textLength="34" x="850" y="285.3325">[0..1]</text><ellipse cx="670" cy="297.4648" fill="none" rx="3" ry="3" style="stroke:#038048;stroke-width:1.0;"/><text fill="#4169E1" font-family="sans-serif" font-size="13" lengthAdjust="spacing" textLength="56" x="679" y="300.4653">has note</text><text fill="#000000" font-family="sans-serif" font-size="13" lengthAdjust="spacing" textLength="39" x="743" y="300.4653">Literal</text><text fill="#008000" font-family="sans-serif" font-size="13" lengthAdjust="spacing" textLength="34" x="790" y="300.4653">[0..1]</text></g><!--class -417934618--><g id="elem_-417934618"><rect codeLine="31" fill="#F1F1F1" height="62.2344" id="-417934618" rx="2.5" ry="2.5" style="stroke:#000000;stroke-width:0.5;" width="171" x="282" y="200"/><text fill="#0000FF" font-family="sans-serif" font-size="12" font-style="italic" lengthAdjust="spacing" textLength="127" x="304" y="216.1387">«Spacetime Volume»</text><text fill="#000000" font-family="sans-serif" font-size="13" lengthAdjust="spacing" textLength="59" x="338" y="231.0356">Presence</text><line style="stroke:#000000;stroke-width:0.5;" x1="283" x2="452" y1="239.1016" y2="239.1016"/><ellipse cx="293" cy="252.168" fill="none" rx="3" ry="3" style="stroke:#038048;stroke-width:1.0;"/><text fill="#4169E1" font-family="sans-serif" font-size="13" lengthAdjust="spacing" textLength="56" x="302" y="255.1685">has note</text><text fill="#000000" font-family="sans-serif" font-size="13" lengthAdjust="spacing" textLength="39" x="366" y="255.1685">Literal</text><text fill="#008000" font-family="sans-serif" font-size="13" lengthAdjust="spacing" textLength="34" x="413" y="255.1685">[0..1]</text></g><!--class -1708819790--><g id="elem_-1708819790"><rect codeLine="34" fill="#F1F1F1" height="39.1016" id="-1708819790" rx="2.5" ry="2.5" style="stroke:#000000;stroke-width:0.5;" width="174" x="747" y="347.5"/><text fill="#0000FF" font-family="sans-serif" font-size="12" font-style="italic" lengthAdjust="spacing" textLength="172" x="748" y="363.6387">«Place, Propositional Object»</text><text fill="#000000" font-family="sans-serif" font-size="13" lengthAdjust="spacing" textLength="111" x="778.5" y="378.5356">Declarative Place</text></g><!--class 1259173463--><g id="elem_1259173463"><rect codeLine="36" fill="#F1F1F1" height="77.3672" id="1259173463" rx="2.5" ry="2.5" style="stroke:#000000;stroke-width:0.5;" width="320" x="1208" y="351.5"/><text fill="#0000FF" font-family="sans-serif" font-size="12" font-style="italic" lengthAdjust="spacing" textLength="98" x="1319" y="367.6387">«Spatial Object»</text><text fill="#000000" font-family="sans-serif" font-size="13" lengthAdjust="spacing" textLength="65" x="1335.5" y="382.5356">Geometry</text><line style="stroke:#000000;stroke-width:0.5;" x1="1209" x2="1527" y1="390.6016" y2="390.6016"/><ellipse cx="1219" cy="403.668" fill="none" rx="3" ry="3" style="stroke:#038048;stroke-width:1.0;"/><text fill="#4169E1" font-family="sans-serif" font-size="13" lengthAdjust="spacing" textLength="201" x="1228" y="406.6685">has spatial resolution in meters</text><text fill="#000000" font-family="sans-serif" font-size="13" lengthAdjust="spacing" textLength="43" x="1437" y="406.6685">double</text><text fill="#008000" font-family="sans-serif" font-size="13" lengthAdjust="spacing" textLength="34" x="1488" y="406.6685">[0..1]</text><ellipse cx="1219" cy="418.8008" fill="none" rx="3" ry="3" style="stroke:#038048;stroke-width:1.0;"/><text fill="#4169E1" font-family="sans-serif" font-size="13" lengthAdjust="spacing" textLength="196" x="1228" y="421.8013">has spatial accuracy in meters</text><text fill="#000000" font-family="sans-serif" font-size="13" lengthAdjust="spacing" textLength="43" x="1432" y="421.8013">double</text><text fill="#008000" font-family="sans-serif" font-size="13" lengthAdjust="spacing" textLength="34" x="1483" y="421.8013">[0..1]</text></g><!--class 1037976763--><g id="elem_1037976763"><rect codeLine="40" fill="#F1F1F1" height="25.1328" id="1037976763" rx="2.5" ry="2.5" style="stroke:#000000;stroke-width:0.5;" width="106" x="1751" y="325.5"/><text fill="#000000" font-family="sans-serif" font-size="13" lengthAdjust="spacing" textLength="100" x="1754" y="342.5669">GeoJSON Literal</text></g><!--class 1097774324--><g id="elem_1097774324"><rect codeLine="42" fill="#F1F1F1" height="25.1328" id="1097774324" rx="2.5" ry="2.5" style="stroke:#000000;stroke-width:0.5;" width="156" x="1726" y="390.5"/><text fill="#000000" font-family="sans-serif" font-size="13" lengthAdjust="spacing" textLength="150" x="1729" y="407.5669">Well-known Text Literal</text></g><!--class 1963030227--><g id="elem_1963030227"><rect codeLine="44" fill="#F1F1F1" height="62.2344" id="1963030227" rx="2.5" ry="2.5" style="stroke:#000000;stroke-width:0.5;" width="338" x="1199" y="229"/><text fill="#0000FF" font-family="sans-serif" font-size="12" font-style="italic" lengthAdjust="spacing" textLength="125" x="1305.5" y="245.1387">«Temporal duration»</text><text fill="#000000" font-family="sans-serif" font-size="13" lengthAdjust="spacing" textLength="89" x="1323.5" y="260.0356">Time duration</text><line style="stroke:#000000;stroke-width:0.5;" x1="1200" x2="1536" y1="268.1016" y2="268.1016"/><ellipse cx="1210" cy="281.168" fill="#84BE84" rx="3" ry="3" style="stroke:#038048;stroke-width:1.0;"/><text fill="#4169E1" font-family="sans-serif" font-size="13" lengthAdjust="spacing" textLength="228" x="1219" y="284.1685">Numeric value of temporal duration</text><text fill="#000000" font-family="sans-serif" font-size="13" lengthAdjust="spacing" textLength="50" x="1455" y="284.1685">decimal</text><text fill="#008000" font-family="sans-serif" font-size="13" lengthAdjust="spacing" textLength="18" x="1513" y="284.1685">[1]</text></g><!--class 1798358405--><g id="elem_1798358405"><rect codeLine="47" fill="#F1F1F1" height="39.1016" id="1798358405" rx="2.5" ry="2.5" style="stroke:#000000;stroke-width:0.5;" width="127" x="1740.5" y="240.5"/><text fill="#0000FF" font-family="sans-serif" font-size="12" font-style="italic" lengthAdjust="spacing" textLength="125" x="1741.5" y="256.6387">«Temporal duration»</text><text fill="#000000" font-family="sans-serif" font-size="13" lengthAdjust="spacing" textLength="89" x="1759.5" y="271.5356">Temporal unit</text></g><!--link -1708819790 to 1259173463--><g id="link_-1708819790_1259173463"><path codeLine="49" d="M921.066,370.7209 C992.902,373.8266 1097.7,378.3572 1187.65,382.2462 " fill="none" id="-1708819790-to-1259173463" style="stroke:#0000FF;stroke-width:1.0;"/><polygon fill="none" points="1188.11,375.2592,1207.79,383.1167,1187.5,389.2462,1188.11,375.2592" style="stroke:#0000FF;stroke-width:1.0;"/></g><!--link -1708819790 to 1259173463--><g id="link_-1708819790_1259173463"><path codeLine="58" d="M911.851,386.5955 C947.262,394.6538 989.999,403.0211 1029,407 C1085.34,412.748 1147.17,411.7573 1202.37,408.2876 " fill="none" id="-1708819790-to-1259173463-1" style="stroke:#000000;stroke-width:1.0;"/><polygon fill="#000000" points="1207.7,407.9443,1198.4566,404.5443,1202.7108,408.2728,1198.9823,412.527,1207.7,407.9443" style="stroke:#000000;stroke-width:1.0;"/><text fill="#000000" font-family="sans-serif" font-size="13" lengthAdjust="spacing" textLength="120" x="1030" y="403.0669">place is defined by</text><text fill="#000000" font-family="sans-serif" font-size="13" lengthAdjust="spacing" textLength="8" x="1192.2552" y="421.1588">1</text></g><!--link -334950341 to -417934618--><g id="link_-334950341_-417934618"><path codeLine="50" d="M153.057,231 C190.467,231 236.726,231 276.606,231 " fill="none" id="-334950341-to--417934618" style="stroke:#000000;stroke-width:1.0;"/><polygon fill="#000000" points="281.937,231,272.937,227,276.937,231,272.937,235,281.937,231" style="stroke:#000000;stroke-width:1.0;"/><text fill="#000000" font-family="sans-serif" font-size="13" lengthAdjust="spacing" textLength="87" x="174" y="227.0669">had presence</text><text fill="#000000" font-family="sans-serif" font-size="13" lengthAdjust="spacing" textLength="7" x="267.0048" y="243.7303">*</text></g><!--link 1637244045 to 1651842394--><g id="link_1637244045_1651842394"><path codeLine="51" d="M948.149,38 C1018.45,38 1110.32,38 1190.1,38 " fill="none" id="1637244045-to-1651842394" style="stroke:#008000;stroke-width:2.0;"/><polygon fill="#008000" points="1195.33,38,1186.33,34,1190.33,38,1186.33,42,1195.33,38" style="stroke:#008000;stroke-width:2.0;"/><text fill="#008000" font-family="sans-serif" font-size="13" lengthAdjust="spacing" textLength="56" x="1062" y="34.0669">has type</text><text fill="#008000" font-family="sans-serif" font-size="13" lengthAdjust="spacing" textLength="8" x="1179.3246" y="50.4037">1</text></g><!--link 2121019810 to 2121019810--><g id="link_2121019810_2121019810"><path codeLine="52" d="M786.144,154.252 C787.798,131.851 803.75,114.5 834,114.5 C861.887,114.5 877.622,129.246 881.207,149.1 " fill="none" id="2121019810-to-2121019810" style="stroke:#000000;stroke-width:1.0;"/><polygon fill="#000000" points="881.856,154.252,884.6981,144.8221,881.2302,149.2913,876.761,145.8234,881.856,154.252" style="stroke:#000000;stroke-width:1.0;"/><text fill="#000000" font-family="sans-serif" font-size="13" lengthAdjust="spacing" textLength="117" x="775.5" y="105.5669">was Derived From</text><text fill="#000000" font-family="sans-serif" font-size="13" lengthAdjust="spacing" textLength="24" x="861.1615" y="143.557">0..1</text></g><!--link 2121019810 to 1963030227--><g id="link_2121019810_1963030227"><path codeLine="53" d="M1009.2,240.496 C1068.32,243.719 1134.34,247.318 1193.42,250.538 " fill="none" id="2121019810-to-1963030227" style="stroke:#000000;stroke-width:1.0;"/><polygon fill="#000000" points="1198.75,250.829,1189.9804,246.3463,1193.7574,250.5576,1189.5461,254.3346,1198.75,250.829" style="stroke:#000000;stroke-width:1.0;"/><text fill="#000000" font-family="sans-serif" font-size="13" lengthAdjust="spacing" textLength="81" x="1049.5" y="238.0669">had duration</text><text fill="#000000" font-family="sans-serif" font-size="13" lengthAdjust="spacing" textLength="24" x="1167.1035" y="262.8233">0..1</text></g><!--link 2121019810 to -1789188227--><g id="link_2121019810_-1789188227"><path codeLine="54" d="M1009.2,209.389 C1059.98,203.089 1115.86,196.157 1168.05,189.682 " fill="none" id="2121019810-to--1789188227" style="stroke:#008000;stroke-width:2.0;"/><polygon fill="#008000" points="1173.09,189.057,1163.6667,186.1932,1168.1279,189.6714,1164.6497,194.1326,1173.09,189.057" style="stroke:#008000;stroke-width:2.0;"/><text fill="#008000" font-family="sans-serif" font-size="13" lengthAdjust="spacing" textLength="56" x="1062" y="188.0669">has type</text><text fill="#008000" font-family="sans-serif" font-size="13" lengthAdjust="spacing" textLength="24" x="1139.0678" y="202.6492">0..1</text></g><!--link -417934618 to -1708819790--><g id="link_-417934618_-1708819790"><path codeLine="55" d="M453.279,261.846 C510.844,282.162 588.949,308.509 659,328 C685.673,335.4217 714.946,342.4177 741.746,348.3795 " fill="none" id="-417934618-to--1708819790" style="stroke:#000000;stroke-width:1.0;"/><polygon fill="#000000" points="746.721,349.4806,738.7975,343.631,741.839,348.4006,737.0695,351.4421,746.721,349.4806" style="stroke:#000000;stroke-width:1.0;"/><text fill="#000000" font-family="sans-serif" font-size="13" lengthAdjust="spacing" textLength="68" x="522" y="266.0669">was within</text><text fill="#000000" font-family="sans-serif" font-size="13" lengthAdjust="spacing" textLength="8" x="730.8767" y="360.6878">1</text></g><!--link -417934618 to 1637244045--><g id="link_-417934618_1637244045"><path codeLine="56" d="M425.422,199.967 C483.12,169.33 575.54,122.48 659,90 C676.877,83.043 696.085,76.455 714.982,70.455 " fill="none" id="-417934618-to-1637244045" style="stroke:#000000;stroke-width:1.0;"/><polygon fill="#000000" points="719.778,68.942,709.9919,67.8322,715.0092,70.4449,712.3965,75.4623,719.778,68.942" style="stroke:#000000;stroke-width:1.0;"/><text fill="#000000" font-family="sans-serif" font-size="13" lengthAdjust="spacing" textLength="110" x="501" y="95.0669">is documented in</text><text fill="#000000" font-family="sans-serif" font-size="13" lengthAdjust="spacing" textLength="24" x="688.0863" y="83.3484">0..1</text></g><!--link -417934618 to 2121019810--><g id="link_-417934618_2121019810"><path codeLine="57" d="M453.156,231 C509.136,231 584.648,231 653.598,231 " fill="none" id="-417934618-to-2121019810" style="stroke:#000000;stroke-width:1.0;"/><polygon fill="#000000" points="658.973,231,649.973,227,653.973,231,649.973,235,658.973,231" style="stroke:#000000;stroke-width:1.0;"/><text fill="#000000" font-family="sans-serif" font-size="13" lengthAdjust="spacing" textLength="164" x="474" y="227.0669">is temporally specified by</text><text fill="#000000" font-family="sans-serif" font-size="13" lengthAdjust="spacing" textLength="8" x="642.8608" y="243.409">1</text></g><!--link 1259173463 to 1097774324--><g id="link_1259173463_1097774324"><path codeLine="59" d="M1528.18,402.3095 C1547.32,403.418 1566.59,404.3616 1585,405 C1638.75,406.8639 1652.23,405.5543 1706,405 C1710.86,404.9499 1715.86,404.8856 1720.91,404.811 " fill="none" id="1259173463-to-1097774324" style="stroke:#000000;stroke-width:1.0;"/><polygon fill="#000000" points="1725.96,404.7332,1716.9038,400.8622,1720.9605,404.8046,1717.0181,408.8614,1725.96,404.7332" style="stroke:#000000;stroke-width:1.0;"/><text fill="#000000" font-family="sans-serif" font-size="13" lengthAdjust="spacing" textLength="48" x="1621.5" y="401.0669">as WKT</text><text fill="#000000" font-family="sans-serif" font-size="13" lengthAdjust="spacing" textLength="8" x="1709.8842" y="417.709">1</text></g><!--link 1259173463 to 1037976763--><g id="link_1259173463_1037976763"><path codeLine="60" d="M1528.14,370.9324 C1604.19,361.8204 1690.47,351.4829 1745.75,344.8598 " fill="none" id="1259173463-to-1037976763" style="stroke:#000000;stroke-width:1.0;"/><polygon fill="#000000" points="1751,344.2306,1741.5933,341.3127,1746.0344,344.8164,1742.5307,349.2576,1751,344.2306" style="stroke:#000000;stroke-width:1.0;"/><text fill="#000000" font-family="sans-serif" font-size="13" lengthAdjust="spacing" textLength="76" x="1607.5" y="346.0669">as GeoJSON</text><text fill="#000000" font-family="sans-serif" font-size="13" lengthAdjust="spacing" textLength="24" x="1719.0781" y="357.9709">0..1</text></g><!--link 1963030227 to 1798358405--><g id="link_1963030227_1798358405"><path codeLine="61" d="M1537.11,260 C1606.16,260 1682.18,260 1735.19,260 " fill="none" id="1963030227-to-1798358405" style="stroke:#000000;stroke-width:1.0;"/><polygon fill="#000000" points="1740.24,260,1731.24,256,1735.24,260,1731.24,264,1740.24,260" style="stroke:#000000;stroke-width:1.0;"/><text fill="#000000" font-family="sans-serif" font-size="13" lengthAdjust="spacing" textLength="119" x="1586" y="256.0669">temporal unit type</text><text fill="#000000" font-family="sans-serif" font-size="13" lengthAdjust="spacing" textLength="8" x="1724.4053" y="272.9359">1</text></g><!--SRC=[lLPBazf64BxpAxhOcxCG2OcLjAOuXCMfEF6ZmbPSgLGE8wb14qOpocXOJ9pzxscza60XthLhNHoGHltrVFrkWKi3He7cgyH0p3L6XYlPItYC474T2QoUCStC3b9CGzHvBrzpcJ7DKWXPj5vfjP7nJ0cbOPjmWvtlCy7oV65GepAx35yfQIh1K6owSbB5c6C6hjKvr4ok7noM6Wiz2_uFWkrqFYqI5gijbojOCf5ZBof4eKy_beDzDRPzT-G4Bi35V3v_ARZ4wvL6bF2fzsd9KSJt5p292dhNMksO-84uJhbSH0ccEFc-_385k57H9aLfu9OioYzXfcI4cQd4eD5GQfx-yUBF1jYxFoGqi3q_i7r_DFA-cX4p28iC8xxa4IiY-CNStWiMOSNFSTnWR3ck3PF98gDZmqd7RqgGzTCfN9HqGv9V5tHJD8awoLUm44LBzXVA4Ct4CHbxE3p5P_unqvZdP58THSSRkQxbZedKJtAfT5hP-oxyYtBtBAtl7j8AUIYuMccM9JoQSLFg-JpD4nnloIy3yb15SMIFRCiEVDiYYhDVty1S6cvs3wbL0Jx535TSWbg2IH3AbvPMJA6-XDNlo7JzzuPg8JccQGs77QRdhq8PVvkB3coYMx-5HSzvJMcFB7eDp-7l3HDKUXX3kFji1Zt5aEVIdL2UIcNmYGhRBa4rYR9f5Axj1OvxPVkFQXJFHke6wK5J6TyXTDgOxLc-RmTUKDHZUNu9xxNALCwBYYVrPth7Nl6FgAYDw5tLWKRZmFR8NAUorl3p6lxVrhm6ao_9LMKNenAXcsZ4Tl9MRKA1NnFevXuMHHlDejsNtjBrn-l5kxTDU2gtM8uNU5SUkUMS6p-W48ErL5kQJlZH7C43p_DSP-IUXHTT5kADBljq1Ggk7CknYW4wcTpIYgAAP6b4dZ8BtbAcQXx17QEtidqSQ-kuYiPi-iZ1q6ZPI6ugobxWEsFVjSQFedpVwtVojm-3mRzJwBSfs8UBSf7gjyEw42AP5xHbj8LPoXKghu5s9CZgyktrstbQumZVRrUbVisdjF6beQZLZyNfC5GYBZNcK2ntlNux-cfjHGAHmkxvdiYMO3VazJjgRQ-qIi_3spWVsT7uxJoqisGzqPQky_QUEGZ6WILRRX8kJy0Q6pgEtWEflSVrCabEE0a_wpx2DaagTbJZvV9NJea7ETE4zJ1jAZLPqH1B8hWaFrJuhcGBtvTe1qwMV_ZvzWIYCNlV5Wv1TGlf7SIslMfV9HsKwHPJ6QJ_0000]--></g></svg>